<svg width="269" height="269" viewBox="0 0 269 269" fill="none" xmlns="http://www.w3.org/2000/svg">
<mask id="mask0" mask-type="alpha" maskUnits="userSpaceOnUse" x="0" y="0" width="269" height="269">
<path d="M265.047 85.7326L260.277 84.144C237.417 76.5391 216.088 64.9374 197.282 49.8782L159.538 19.6811C159.282 19.5042 159.007 19.3536 158.718 19.2362L158.744 19.1784L143.393 11.4964V0.887777H134.487V65.4646L118.454 77.4902L118.501 77.5515C118.319 77.6566 118.144 77.7739 117.975 77.9035C89.7733 106.015 53.0431 123.978 13.5387 128.983L4.77954 130.078C2.33799 130.385 0.607532 132.611 0.91404 135.052C1.12422 136.729 2.26618 138.142 3.86177 138.701L40.9107 151.665C71.0903 162.228 104.12 146.325 114.683 116.143C114.879 115.585 115.066 115.021 115.245 114.455L124.941 83.7552L134.485 76.5987V140.71C134.495 149.253 130.222 157.235 123.106 161.965L123.155 162.037C122.897 162.174 122.654 162.337 122.429 162.522C104.54 180.417 95.1941 205.132 96.7669 230.387L98.8564 263.927C98.9878 266.038 100.583 267.763 102.676 268.061C104.766 268.339 106.768 267.127 107.491 265.148L121.895 224.833C127.283 209.775 130.036 193.9 130.031 177.906V167.871C138.452 161.373 143.386 151.341 143.393 140.704V131.882L147.922 136.411C148.681 169.528 170.157 198.601 201.587 209.063L231.056 218.86C233.391 219.641 235.913 218.382 236.692 216.049C236.95 215.282 236.992 214.459 236.815 213.669L231.916 191.569C224.069 155.513 192.07 129.861 155.171 130.043H154.143L143.391 119.293L143.391 21.4553L152.299 25.9093V35.0695C152.301 73.5634 183.507 104.768 222.001 104.766C229.492 104.766 236.935 103.557 244.043 101.188L265.047 94.187C267.385 93.4181 268.656 90.9012 267.888 88.5647C267.446 87.2214 266.392 86.167 265.047 85.7239V85.7326ZM106.752 111.782C100.305 132.138 81.4397 145.992 60.0875 146.053C54.5564 146.045 49.0673 145.104 43.8496 143.27L24.1789 136.383C56.4602 130.591 86.6837 116.511 111.887 95.5216L106.752 111.782ZM121.125 177.906C121.13 192.877 118.557 207.738 113.518 221.836L106.391 241.752L105.649 229.83C104.489 211.15 109.971 192.662 121.125 177.634V177.906ZM223.206 193.525L226.413 207.95L204.407 200.615C180.028 192.501 162.109 171.609 157.8 146.281L193.686 182.167L199.985 175.87L163.566 139.452C192.963 142.873 216.932 164.603 223.206 193.525ZM241.216 92.7385C209.369 103.358 174.946 86.1495 164.328 54.3042C162.26 48.1022 161.205 41.606 161.207 35.0695V32.423L191.714 56.8246C209.21 70.8398 228.816 81.995 249.802 89.8748L241.216 92.7385Z" fill="black"/>
</mask>
<g mask="url(#mask0)">
<rect x="303.565" y="305.412" width="318.179" height="416.36" transform="rotate(180 303.565 305.412)" fill="#273C76"/>
</g>
</svg>
