<svg width="35" height="54" viewBox="0 0 35 54" fill="none" xmlns="http://www.w3.org/2000/svg">
<path d="M33.7948 29.0126C32.9775 27.0338 31.7755 25.3584 30.2255 24.036C28.6973 22.7202 26.777 21.7093 24.5198 21.0322C22.3249 20.3695 19.7847 20.0336 16.9699 20.0336C15.9779 20.0336 15.0221 20.0472 14.1294 20.0738C13.5875 20.0898 13.0412 20.12 12.4956 20.1642V11.6154H29.3486C29.9089 11.6154 30.9323 11.3927 31.4975 9.90381C31.821 9.08207 31.9782 7.85386 31.9782 6.14946C31.9782 5.27357 31.9464 4.59867 31.8786 4.02822C31.8028 3.3766 31.6755 2.84408 31.4893 2.40083C31.2883 1.90271 30.9914 1.49895 30.6303 1.23259C30.2418 0.942739 29.7988 0.789551 29.3485 0.789551H5.54521C4.37448 0.789551 3.46949 1.13105 2.85549 1.8046C2.85164 1.80876 2.8479 1.81292 2.84416 1.81718C2.26789 2.47025 1.9878 3.42357 1.9878 4.73138V26.5333C1.9878 27.8283 2.22372 28.705 2.72828 29.2903C3.25124 29.9006 4.05636 30.21 5.12109 30.21C6.21014 30.21 7.424 30.1318 8.7288 29.9776C8.73296 29.977 8.73711 29.9765 8.74117 29.976C9.91013 29.8235 11.2428 29.7462 12.702 29.7462C14.4729 29.7462 16.0068 29.9052 17.2615 30.219C17.3729 30.2467 17.4822 30.2759 17.5897 30.3065C18.1416 30.4632 18.7166 30.1431 18.8736 29.591C19.0305 29.0388 18.7101 28.464 18.1581 28.307C18.0292 28.2704 17.8981 28.2355 17.7652 28.2023C16.3463 27.8475 14.6428 27.6676 12.7021 27.6676C11.156 27.6676 9.73533 27.7505 8.47917 27.9139C7.2572 28.0582 6.12741 28.1314 5.12109 28.1314C4.64282 28.1314 4.38674 28.0313 4.30454 27.9354C4.28022 27.9071 4.06634 27.6274 4.06634 26.5332V4.73138C4.06634 3.70428 4.29373 3.32016 4.39755 3.19847C4.60291 2.97929 4.98889 2.86808 5.54521 2.86808H29.3373C29.3451 2.87141 29.3637 2.88076 29.3955 2.90467C29.4186 2.92285 29.4936 3.00828 29.5632 3.18236C29.5657 3.1888 29.5683 3.19504 29.571 3.20138C29.6797 3.45849 29.7615 3.81745 29.8142 4.2712C29.8716 4.75425 29.8996 5.36877 29.8996 6.14957C29.8996 7.92193 29.716 8.7574 29.5618 9.14629C29.5598 9.15159 29.5577 9.15689 29.5557 9.16219C29.4579 9.42139 29.3711 9.51336 29.3447 9.53685H11.4563C10.8823 9.53685 10.417 10.0022 10.417 10.5761V21.3114C10.417 21.6081 10.5439 21.8908 10.7656 22.0881C10.9872 22.2853 11.283 22.3781 11.5775 22.3436C12.4446 22.2418 13.3237 22.177 14.1909 22.1514C15.0633 22.1254 15.9983 22.1122 16.9697 22.1122C19.5809 22.1122 21.919 22.4182 23.9207 23.0226C25.8984 23.6159 27.5633 24.4868 28.8727 25.6143C30.1917 26.7397 31.1733 28.1109 31.8745 29.8087C32.5692 31.4781 32.9214 33.4797 32.9214 35.7579C32.9214 38.3068 32.474 40.6138 31.5916 42.6146C30.7211 44.5885 29.4674 46.283 27.8687 47.6481C26.2658 49.0044 24.2969 50.0668 22.0184 50.8055C19.7212 51.546 17.1173 51.9215 14.2793 51.9215C12.7453 51.9215 11.3053 51.8269 9.99826 51.6401C8.6972 51.4561 7.47222 51.2147 6.3574 50.923C5.20828 50.6084 4.3804 50.3371 3.75903 50.0724C2.92543 49.7107 2.71332 49.5671 2.66458 49.5254C2.65699 49.5184 2.64919 49.5112 2.6413 49.5043C2.53321 49.409 2.45683 49.3138 2.40788 49.2139C2.34168 49.0616 2.28306 48.8609 2.23047 48.6085C2.17955 48.3539 2.14224 47.9991 2.11657 47.5237C2.09121 47.0551 2.07833 46.4854 2.07833 45.8303C2.07833 45.1448 2.10316 44.5617 2.15211 44.0967C2.20844 43.5611 2.28431 43.2847 2.33814 43.1475C2.33991 43.1429 2.34168 43.1382 2.34344 43.1336C2.3688 43.0661 2.39073 43.0154 2.4085 42.9782C2.51523 43.0159 2.70137 43.0951 2.98612 43.2589C2.99174 43.2621 2.99745 43.2653 3.00327 43.2684C3.58318 43.5874 4.322 43.9339 5.20475 44.3006C6.14497 44.6852 7.2626 45.0318 8.51876 45.329C9.82138 45.6476 11.4072 45.8093 13.2323 45.8093C14.798 45.8093 16.2643 45.6429 17.5904 45.315C17.5937 45.3141 17.5972 45.3133 17.6005 45.3125C18.9929 44.9532 20.1435 44.3997 21.124 43.6152C22.1128 42.812 22.8764 41.8126 23.3917 40.6496C23.9182 39.4762 24.1852 38.0801 24.1852 36.4999C24.1852 36.4332 24.1847 36.367 24.1835 36.3009C24.1744 35.727 23.6967 35.2687 23.1278 35.2782C22.554 35.2874 22.0962 35.76 22.1053 36.3339C22.1061 36.389 22.1067 36.4444 22.1067 36.4999C22.1067 37.7847 21.901 38.8947 21.4933 39.8031C21.1048 40.68 20.5553 41.3991 19.8195 41.997C19.0802 42.5883 18.1861 43.0141 17.0862 43.2985C15.9246 43.5853 14.628 43.7307 13.2324 43.7307C11.5737 43.7307 10.154 43.5891 9.00524 43.308C7.84615 43.0338 6.83224 42.7205 5.99709 42.3789C5.19342 42.0451 4.52601 41.7331 4.01313 41.4516C3.31869 41.0535 2.78201 40.868 2.32474 40.868C1.866 40.868 1.44978 41.0191 1.11784 41.3056C0.819046 41.544 0.589888 41.8927 0.399806 42.3975C0.251295 42.7799 0.151213 43.251 0.0852198 43.8792C0.0278523 44.4235 0 45.0618 0 45.8303C0 46.5227 0.0138226 47.1302 0.0412592 47.6358C0.072749 48.2195 0.120867 48.6581 0.194135 49.0241C0.28133 49.4429 0.382866 49.7753 0.513813 50.0696C0.516827 50.0764 0.519946 50.0832 0.523063 50.0899C0.690593 50.4459 0.937003 50.77 1.25543 51.0533C1.55183 51.3264 2.00973 51.579 2.93821 51.982C3.65562 52.2875 4.56965 52.5886 5.81438 52.9293C5.81813 52.9304 5.82176 52.9313 5.8255 52.9323C7.019 53.2449 8.32504 53.5025 9.70581 53.6979C11.1084 53.8984 12.6473 54 14.2793 54C17.3342 54 20.1526 53.5907 22.658 52.7831C25.1964 51.9602 27.4013 50.7664 29.2149 49.2317C31.0565 47.6592 32.496 45.7152 33.4935 43.4532C34.4931 41.1864 35 38.5973 35 35.7578C35 33.2042 34.5941 30.934 33.7948 29.0126Z" fill="#434343"/>
<path d="M22.8494 31.8345C22.8494 31.2606 22.3841 30.7952 21.8101 30.7952H21.8094C21.2354 30.7952 20.7705 31.2606 20.7705 31.8345C20.7705 32.4084 21.2361 32.8738 21.8101 32.8738C22.3841 32.8738 22.8494 32.4084 22.8494 31.8345Z" fill="#434343"/>
</svg>
