<svg width="21" height="21" viewBox="0 0 21 21" fill="none" xmlns="http://www.w3.org/2000/svg">
<path d="M15.25 1H5.75C3.12665 1 1 3.12665 1 5.75V15.25C1 17.8734 3.12665 20 5.75 20H15.25C17.8734 20 20 17.8734 20 15.25V5.75C20 3.12665 17.8734 1 15.25 1Z" stroke="white" stroke-linecap="round" stroke-linejoin="round"/>
<path d="M14.3 9.90151C14.4172 10.6921 14.2822 11.4996 13.914 12.2091C13.5459 12.9185 12.9635 13.4939 12.2495 13.8532C11.5356 14.2125 10.7266 14.3376 9.93744 14.2106C9.14833 14.0837 8.41935 13.7111 7.85419 13.1459C7.28902 12.5807 6.91645 11.8517 6.78948 11.0626C6.6625 10.2735 6.78757 9.46441 7.14691 8.75047C7.50625 8.03652 8.08156 7.45407 8.79101 7.08594C9.50045 6.71782 10.3079 6.58277 11.0985 6.70001C11.905 6.8196 12.6516 7.1954 13.2281 7.7719C13.8046 8.3484 14.1804 9.09503 14.3 9.90151Z" stroke="white" stroke-linecap="round" stroke-linejoin="round"/>
<path d="M15.7246 5.27496H15.7341" stroke="white" stroke-linecap="round" stroke-linejoin="round"/>
</svg>
