<svg width="46" height="56" viewBox="0 0 46 56" fill="none" xmlns="http://www.w3.org/2000/svg">
<path d="M23.0001 55.1821C16.8565 55.1821 11.0808 52.7898 6.73663 48.4456C2.39245 44.1014 0 38.3257 0 32.182C0 27.9459 1.14472 23.8159 3.31054 20.2381C3.55735 19.8304 4.04491 19.6369 4.50454 19.7652C4.96353 19.8933 5.28106 20.3116 5.28106 20.7881C5.28106 23.1074 7.17629 25.8034 9.61961 25.8034C12.0202 25.8034 13.9735 23.8502 13.9735 21.4494C13.9735 20.6264 13.7495 19.8306 13.3255 19.1484C12.5456 17.9154 12.131 16.4735 12.131 14.9856C12.131 10.8133 15.3918 7.3911 19.5555 7.19187C21.2214 7.0914 22.5257 5.70487 22.5257 4.03287C22.5257 3.44994 22.3754 2.89059 22.0911 2.41524C21.8798 2.06181 21.8917 1.61811 22.1219 1.27657C22.352 0.93493 22.7589 0.757471 23.1657 0.820765C25.0249 1.10995 26.7309 2.0565 27.9692 3.48615C29.2224 4.9328 29.9125 6.78279 29.9125 8.69533C29.9125 10.325 29.4201 11.8971 28.4886 13.242C28.4846 13.2478 28.4807 13.2534 28.4766 13.259C27.8858 14.0769 27.5737 15.0388 27.5737 16.0407C27.5737 18.6514 29.6976 20.7753 32.3083 20.7753C34.8681 20.7753 36.9476 18.778 37.0421 16.2285C37.0576 15.8113 37.316 15.4421 37.7026 15.2844C38.089 15.127 38.532 15.2103 38.8348 15.4978C41.0737 17.6242 42.8358 20.1312 44.0716 22.9489C45.3512 25.8662 46 28.9727 46 32.1821C46 36.6487 44.7182 40.98 42.2931 44.708C41.9731 45.1995 41.3155 45.3388 40.8238 45.0192C40.3322 44.6993 40.1929 44.0415 40.5126 43.5498C42.713 40.1673 43.876 36.2365 43.876 32.1821C43.876 27.0612 42.0649 22.2577 38.7376 18.459C37.765 21.0679 35.2567 22.8993 32.3083 22.8993C28.5265 22.8993 25.4497 19.8225 25.4497 16.0407C25.4497 14.5933 25.8986 13.2049 26.748 12.0248C27.4289 11.0387 27.7887 9.88763 27.7887 8.69533C27.7887 6.48458 26.5117 4.49621 24.6245 3.50835C24.6413 3.68177 24.6496 3.85679 24.6496 4.03287C24.6496 6.83026 22.4641 9.14933 19.6738 9.31256C19.6698 9.31288 19.6657 9.31309 19.6617 9.3133C16.6298 9.45572 14.255 11.9474 14.255 14.9856C14.255 16.0709 14.5559 17.1203 15.1251 18.0203C15.7627 19.0467 16.0973 20.2299 16.0973 21.4494C16.0973 25.0214 13.1914 27.9274 9.61951 27.9274C7.89229 27.9274 6.2479 27.1141 4.98923 25.6374C4.52333 25.0907 4.13688 24.4797 3.8409 23.8336C2.71211 26.4455 2.12387 29.2859 2.12387 32.1821C2.12409 43.6932 11.4889 53.0581 23.0001 53.0581C26.905 53.0581 30.7123 51.9736 34.0106 49.922C34.5085 49.6121 35.1636 49.7648 35.4732 50.2628C35.783 50.7607 35.6304 51.4157 35.1324 51.7255C31.4972 53.9869 27.3019 55.1821 23.0001 55.1821Z" fill="#434343"/>
<path d="M17.8178 36.3462C15.9437 36.3462 14.4189 34.8215 14.4189 32.9471C14.4189 31.0728 15.9436 29.5481 17.8178 29.5481C19.692 29.5481 21.2168 31.0728 21.2168 32.9471C21.2168 34.8215 19.6921 36.3462 17.8178 36.3462ZM17.8178 31.6721C17.1149 31.6721 16.5429 32.2441 16.5429 32.9471C16.5429 33.6502 17.1149 34.2222 17.8178 34.2222C18.5209 34.2222 19.0928 33.6502 19.0928 32.9471C19.0928 32.2441 18.5209 31.6721 17.8178 31.6721Z" fill="#434343"/>
<path d="M20.0595 45.1907C19.9037 45.1907 19.7458 45.1564 19.5964 45.0837C19.0687 44.8276 18.8488 44.1921 19.105 43.6646L24.9485 31.6315C25.2046 31.1038 25.8403 30.884 26.3676 31.1401C26.8952 31.3963 27.1153 32.0318 26.859 32.5593L21.0155 44.5923C20.832 44.9705 20.4534 45.1907 20.0595 45.1907Z" fill="#434343"/>
<path d="M28.1822 46.7102C26.308 46.7102 24.7832 45.1855 24.7832 43.3113C24.7832 41.4371 26.3079 39.9124 28.1822 39.9124C30.0563 39.9124 31.5811 41.437 31.5811 43.3113C31.5811 45.1855 30.0563 46.7102 28.1822 46.7102ZM28.1822 42.0364C27.4792 42.0364 26.9072 42.6084 26.9072 43.3114C26.9072 44.0144 27.4792 44.5863 28.1822 44.5863C28.8851 44.5863 29.4571 44.0144 29.4571 43.3114C29.4571 42.6083 28.8851 42.0364 28.1822 42.0364Z" fill="#434343"/>
<path d="M38.3306 48.9363C38.0502 48.9363 37.7762 48.8228 37.5788 48.6251C37.3812 48.4276 37.2686 48.1536 37.2686 47.8743C37.2686 47.5939 37.3812 47.321 37.5788 47.1235C37.7762 46.926 38.0502 46.8123 38.3306 46.8123C38.6101 46.8123 38.8829 46.9259 39.0806 47.1235C39.2792 47.321 39.3927 47.595 39.3927 47.8743C39.3927 48.1536 39.2792 48.4276 39.0806 48.6251C38.883 48.8228 38.6101 48.9363 38.3306 48.9363Z" fill="#434343"/>
</svg>
