<svg width="42" height="56" viewBox="0 0 42 56" fill="none" xmlns="http://www.w3.org/2000/svg">
<path d="M38.0883 39.1101C37.9549 39.11 37.8238 39.0755 37.7075 39.0101C37.5913 38.9446 37.4938 38.8503 37.4245 38.7363C37.3553 38.6223 37.3165 38.4923 37.312 38.359C37.3074 38.2257 37.3373 38.0934 37.3987 37.9749C37.7509 37.2939 38.0557 36.6439 38.3317 35.9892C38.4142 35.8039 38.5659 35.6582 38.7544 35.5832C38.9429 35.5082 39.1532 35.5098 39.3405 35.5877C39.5279 35.6656 39.6773 35.8137 39.7569 36.0003C39.8366 36.1868 39.8402 36.3972 39.7669 36.5863C39.4785 37.2814 39.1566 37.9695 38.7834 38.6902C38.7175 38.8175 38.6177 38.924 38.495 38.9981C38.3724 39.0722 38.2316 39.111 38.0883 39.1101Z" fill="#434343"/>
<path d="M21 55.1575C20.8782 55.1573 20.7582 55.1288 20.6494 55.0743C7.7197 48.5488 0 37.6026 0 25.7917V10.0631C3.9278e-05 9.95437 0.022895 9.84683 0.0670899 9.74746C0.111285 9.64809 0.175835 9.55909 0.256572 9.48623C0.33755 9.41367 0.432713 9.35872 0.536033 9.32486C0.639353 9.291 0.74858 9.27897 0.856794 9.28952C8.54539 10.081 15.123 7.29449 20.4044 1.01004C20.4767 0.924248 20.5666 0.855089 20.668 0.807313C20.7695 0.759537 20.8801 0.734274 20.9922 0.733258C21.1045 0.731407 21.2159 0.754264 21.3184 0.800213C21.4209 0.846162 21.5121 0.91408 21.5854 0.99916C26.2247 6.30552 32.8373 9.09282 41.2404 9.28563C41.4435 9.29031 41.6367 9.37428 41.7786 9.51958C41.9206 9.66489 42.0001 9.85998 42 10.0631V22.8684C42 23.0746 41.9181 23.2723 41.7723 23.4181C41.6265 23.5639 41.4287 23.6458 41.2225 23.6458C41.0163 23.6458 40.8186 23.5639 40.6727 23.4181C40.5269 23.2723 40.445 23.0746 40.445 22.8684V10.8173C32.2946 10.4791 25.7652 7.74621 21.014 2.68398C15.6804 8.68619 9.14095 11.4478 1.55498 10.9114V25.7917C1.55498 36.8974 8.81596 47.2341 21 53.5069C26.2546 50.8793 30.8666 47.1275 34.5089 42.5178C34.5709 42.4367 34.6483 42.3686 34.7367 42.3174C34.825 42.2662 34.9226 42.2329 35.0238 42.2194C35.125 42.2059 35.2279 42.2125 35.3266 42.2387C35.4253 42.265 35.5178 42.3104 35.5989 42.3724C35.68 42.4345 35.7482 42.5119 35.7994 42.6002C35.8506 42.6886 35.8839 42.7861 35.8974 42.8874C35.9109 42.9886 35.9043 43.0915 35.878 43.1901C35.8518 43.2888 35.8063 43.3814 35.7443 43.4625C31.8748 48.3604 26.9562 52.3283 21.3506 55.0743C21.2418 55.1288 21.1217 55.1573 21 55.1575Z" fill="#434343"/>
<path d="M40.687 31.8484C40.6348 31.8487 40.5827 31.8435 40.5315 31.8328C40.3294 31.7925 40.1515 31.6735 40.0371 31.502C39.9226 31.3306 39.881 31.1207 39.9212 30.9185C40.0767 30.1636 40.1949 29.3924 40.2851 28.625C40.2951 28.5221 40.3256 28.4223 40.3747 28.3313C40.4238 28.2403 40.4905 28.1601 40.571 28.0952C40.6515 28.0304 40.7441 27.9822 40.8434 27.9535C40.9428 27.9249 41.0468 27.9163 41.1495 27.9284C41.2522 27.9404 41.3514 27.9728 41.4414 28.0237C41.5314 28.0745 41.6103 28.1428 41.6736 28.2246C41.7369 28.3063 41.7833 28.3998 41.81 28.4997C41.8367 28.5996 41.8432 28.7037 41.8292 28.8062C41.7343 29.6147 41.6052 30.4279 41.4459 31.2233C41.4108 31.399 41.3161 31.5571 41.1778 31.671C41.0395 31.7849 40.8662 31.8475 40.687 31.8484Z" fill="#434343"/>
<path d="M21.0003 50.0681C20.8667 50.0682 20.7355 50.0336 20.6193 49.9678C10.4715 44.2642 4.41406 35.2608 4.41406 25.8828V14.5244C4.41386 14.3242 4.49095 14.1315 4.62928 13.9867C4.7676 13.8418 4.95649 13.756 5.15657 13.747C10.9227 13.4969 16.4004 11.1554 20.5656 7.16007C20.7048 7.031 20.8864 6.95729 21.0762 6.95285C21.2659 6.94841 21.4508 7.01354 21.5958 7.13597C25.9549 10.7075 31.2853 12.8891 36.8976 13.3986C37.0873 13.4202 37.2624 13.5108 37.3896 13.6532C37.5168 13.7956 37.5871 13.9798 37.5872 14.1707V25.882C37.5872 35.2601 31.529 44.2642 21.3812 49.9678C21.265 50.0336 21.1338 50.0682 21.0003 50.0681ZM5.96904 15.2576V25.8828C5.96904 34.5743 11.5794 42.9626 21.0003 48.3934C30.4219 42.9611 36.0322 34.5712 36.0322 25.8797V14.858C30.593 14.241 25.4309 12.1296 21.1184 8.75781C16.9415 12.5637 11.6053 14.8532 5.96904 15.2576Z" fill="#434343"/>
<path d="M17.603 34.8745C17.3968 34.8745 17.1991 34.7925 17.0533 34.6467L12.6753 30.2686C12.5337 30.122 12.4553 29.9256 12.4571 29.7217C12.4588 29.5179 12.5406 29.3229 12.6848 29.1787C12.8289 29.0346 13.0239 28.9528 13.2278 28.951C13.4316 28.9492 13.628 29.0276 13.7747 29.1692L17.603 32.9992L28.2251 22.3747C28.2973 22.3025 28.383 22.2451 28.4774 22.206C28.5717 22.1669 28.6728 22.1468 28.7749 22.1467C28.8771 22.1467 28.9782 22.1668 29.0725 22.2058C29.1669 22.2449 29.2527 22.3021 29.3249 22.3743C29.3971 22.4465 29.4544 22.5322 29.4936 22.6265C29.5327 22.7209 29.5528 22.822 29.5529 22.9241C29.5529 23.0262 29.5328 23.1274 29.4938 23.2217C29.4547 23.3161 29.3975 23.4018 29.3253 23.4741L18.1527 34.6467C18.0069 34.7925 17.8092 34.8745 17.603 34.8745Z" fill="#434343"/>
</svg>
