<svg width="92" height="91" viewBox="0 0 92 91" fill="none" xmlns="http://www.w3.org/2000/svg">
<g clip-path="url(#clip0)">
<path d="M46.0278 91C71.1173 91 91.5278 70.5895 91.5278 45.5C91.5278 20.4105 71.1173 0 46.0278 0C20.9384 0 0.527832 20.4105 0.527832 45.5C0.527832 70.5895 20.9384 91 46.0278 91ZM46.0278 5.6875C67.9816 5.6875 85.8403 23.5463 85.8403 45.5C85.8403 67.4538 67.9816 85.3125 46.0278 85.3125C24.0741 85.3125 6.21533 67.4538 6.21533 45.5C6.21533 23.5463 24.0741 5.6875 46.0278 5.6875Z" fill="#273C76"/>
<path d="M30.4669 53.6712L36.4122 51.0891L34.7439 52.7612C34.2093 53.2959 33.9097 54.0201 33.9097 54.7708V65.8994C33.9097 68.4474 36.9886 69.6834 38.7631 67.9089L44.7311 61.9409L57.7366 68.4436C59.4201 69.2853 61.4562 68.2881 61.805 66.4074L69.2253 25.6053C69.6159 23.4099 67.4546 21.6354 65.3881 22.4469L17.1733 41.318C15.0121 42.1597 14.7239 45.1172 16.6804 46.3647L27.8051 53.4627C28.6014 53.9708 29.6062 54.0504 30.4669 53.6712ZM62.7188 29.6055L56.891 61.6641L45.4402 55.9424C44.333 55.3889 43.0135 55.6201 42.1604 56.4771L39.5972 59.0402V55.9576L50.9988 44.5561C53.2093 42.3455 50.722 38.6979 47.8555 39.9378L29.591 47.8624L24.4571 44.5864L62.7188 29.6055Z" fill="#273C76"/>
</g>
<defs>
<clipPath id="clip0">
<rect width="91" height="91" fill="white" transform="translate(0.527832)"/>
</clipPath>
</defs>
</svg>
