<svg width="76" height="54" viewBox="0 0 76 54" fill="none" xmlns="http://www.w3.org/2000/svg">
<path d="M17.9772 38.9302C13.8217 38.9302 10.4424 42.3096 10.4424 46.4651C10.4424 50.6206 13.8217 54 17.9772 54C22.1327 54 25.5121 50.6206 25.5121 46.4651C25.5121 42.3096 22.1326 38.9302 17.9772 38.9302ZM17.9772 51.4883C15.2069 51.4883 12.954 49.2353 12.954 46.4651C12.954 43.6947 15.207 41.4419 17.9772 41.4419C20.7475 41.4419 23.0004 43.6948 23.0004 46.4651C23.0004 49.2353 20.7475 51.4883 17.9772 51.4883Z" fill="#434343"/>
<path d="M60.6745 38.9302C56.519 38.9302 53.1396 42.3096 53.1396 46.4651C53.1396 50.6206 56.519 54 60.6745 54C64.83 54 68.2094 50.6206 68.2094 46.4651C68.2094 42.3096 64.83 38.9302 60.6745 38.9302ZM60.6745 51.4883C57.9041 51.4883 55.6513 49.2353 55.6513 46.4651C55.6513 43.6947 57.9043 41.4419 60.6745 41.4419C63.4449 41.4419 65.6977 43.6948 65.6977 46.4651C65.6977 49.2353 63.4449 51.4883 60.6745 51.4883Z" fill="#434343"/>
<path d="M75.5443 31.9719L64.242 14.3904C64.011 14.0312 63.6129 13.814 63.1858 13.814H49.372C48.6775 13.814 48.1162 14.3766 48.1162 15.0697V46.465C48.1162 47.1595 48.6775 47.7208 49.372 47.7208H54.3952V45.2091H50.6277V16.3256H62.5002L73.2324 33.0204V45.2094H66.9533V47.7209H74.4881C75.1826 47.7209 75.7439 47.1597 75.7439 46.4652V32.6512C75.744 32.4113 75.675 32.1739 75.5443 31.9719Z" fill="#434343"/>
<path d="M55.6512 30.1394V21.3488H65.6976V18.8372H54.3954C53.7009 18.8372 53.1396 19.3998 53.1396 20.0929V31.3951C53.1396 32.0896 53.7009 32.6509 54.3954 32.6509H73.2324V30.1392H55.6512V30.1394Z" fill="#434343"/>
<path d="M49.372 5.02344H1.65127C0.95812 5.02344 0.395508 5.58605 0.395508 6.2792V46.4652C0.395508 47.1597 0.95812 47.7209 1.65127 47.7209H11.6978V45.2093H2.90717V7.53496H48.1163V45.2093H24.2558V47.7209H49.372C50.0665 47.7209 50.6278 47.1597 50.6278 46.4652V6.2792C50.6278 5.58605 50.0665 5.02344 49.372 5.02344Z" fill="#434343"/>
<path d="M9.18628 40.186H1.65137V42.6978H9.18628V40.186Z" fill="#434343"/>
<path d="M48.1165 40.186H26.7676V42.6978H48.1165V40.186Z" fill="#434343"/>
<path d="M74.488 40.186H69.4648V42.6978H74.488V40.186Z" fill="#434343"/>
<path d="M49.3724 10.0464H5.41895V12.5581H49.3724V10.0464Z" fill="#434343"/>
<path d="M16.7207 46.4651C16.7207 47.1587 17.283 47.7209 17.9766 47.7209C18.6702 47.7209 19.2324 47.1587 19.2324 46.4651C19.2324 45.7715 18.6702 45.2092 17.9766 45.2092C17.283 45.2092 16.7207 45.7715 16.7207 46.4651Z" fill="#434343"/>
<path d="M59.4189 46.4651C59.4189 47.1587 59.9812 47.7209 60.6748 47.7209C61.3684 47.7209 61.9307 47.1587 61.9307 46.4651C61.9307 45.7715 61.3684 45.2092 60.6748 45.2092C59.9812 45.2092 59.4189 45.7715 59.4189 46.4651Z" fill="#434343"/>
<path d="M23.0004 0H5.41895V2.51172H23.0004V0Z" fill="#434343"/>
<path d="M2.90723 0H0.395508V2.51172H2.90723V0Z" fill="#434343"/>
</svg>
